<svg width="32" height="37" viewBox="0 0 32 37" fill="none" xmlns="http://www.w3.org/2000/svg">
<path fill-rule="evenodd" clip-rule="evenodd" d="M8.03014 18.7636C10.7517 18.7636 13.232 17.4245 14.7257 15.1665H17.206C18.6997 17.4245 21.1798 18.7636 23.9015 18.7636C28.3291 18.7636 31.9314 15.1612 31.9314 10.7337C31.9314 8.01162 30.5924 5.53125 28.3346 4.03761V0.538993C28.3346 0.241427 28.0932 0 27.7956 0C27.4981 0 27.2566 0.241427 27.2566 0.538993V4.03485C26.9942 4.15819 26.6911 4.26687 26.3507 4.35841C24.3601 4.89436 23.8982 5.6792 23.1336 6.97954C23.0282 7.15874 22.919 7.34403 22.797 7.5448C22.3758 8.23645 21.599 8.47124 20.6994 8.74336C19.7923 9.01742 18.7647 9.32799 17.9181 10.1745C16.4892 11.6032 17.0025 13.0238 17.3579 13.656C17.2804 13.7948 17.2082 13.9392 17.141 14.0888H14.7907C14.7243 13.9408 14.6529 13.7981 14.5763 13.6607C14.9317 13.0307 15.4511 11.6067 14.0185 10.1745C13.1723 9.32799 12.1444 9.01742 11.2373 8.74336C10.3377 8.47124 9.56084 8.23645 9.13966 7.5448C9.0177 7.34403 8.90874 7.15874 8.8031 6.97954C8.03844 5.6792 7.5766 4.89436 5.58601 4.35841C5.24336 4.26632 4.93833 4.1568 4.6745 4.03208V0.538993C4.6745 0.241427 4.43308 0 4.13551 0C3.83794 0 3.59652 0.241427 3.59652 0.538993V4.03789C1.33905 5.53153 0 8.01189 0 10.7337C0 11.2754 0.0544801 11.8175 0.161781 12.3443C0.221239 12.6361 0.505808 12.8244 0.79729 12.7649C1.08905 12.7055 1.27738 12.4209 1.21792 12.1291C1.125 11.6731 1.07799 11.2035 1.07799 10.7337C1.07799 8.54757 2.07522 6.54093 3.78042 5.22954C4.65487 8.45962 7.21073 9.78263 9.48562 10.9599C11.318 11.9082 13.0528 12.8061 13.8269 14.5725C12.5332 16.5271 10.3858 17.6858 8.02987 17.6858C5.22428 17.6858 2.70796 16.0147 1.61919 13.4284C1.50387 13.154 1.18778 13.0252 0.91344 13.1408C0.639381 13.2561 0.510509 13.5722 0.62583 13.8465C1.8833 16.8335 4.78955 18.7636 8.03014 18.7636ZM30.8537 10.7337C30.8537 14.5669 27.7348 17.6858 23.9015 17.6858C21.5456 17.6858 19.3982 16.5271 18.1045 14.5725C18.8786 12.8061 20.6137 11.9082 22.4458 10.9599C24.7207 9.78263 27.2765 8.45962 28.1513 5.22954C29.8562 6.54093 30.8537 8.54757 30.8537 10.7337ZM18.6803 10.9364C19.3355 10.2815 20.1872 10.0238 21.0113 9.77489C22.0293 9.46709 23.0824 9.14906 23.7176 8.10509C23.844 7.89768 23.9552 7.70852 24.0625 7.526C24.7926 6.28484 25.0655 5.82052 26.6308 5.39906C26.7611 5.36421 26.8869 5.3266 27.0088 5.28678C26.1831 7.81029 24.1206 8.87942 21.9502 10.0028C20.5517 10.7265 19.1203 11.4679 18.0877 12.6316C17.9864 12.1916 18.0365 11.5802 18.6803 10.9364ZM9.98119 10.0028C7.81056 8.87915 5.74751 7.80973 4.92229 5.28512C5.04618 5.3255 5.17367 5.36366 5.30586 5.39906C6.87113 5.82052 7.14436 6.28485 7.87445 7.526C7.98175 7.70852 8.09292 7.89768 8.21903 8.10509C8.85454 9.14906 9.90736 9.46709 10.9256 9.77489C11.7494 10.0238 12.6015 10.2815 13.2566 10.9364C13.9024 11.5821 13.9508 12.1947 13.8476 12.6361C12.8147 11.4699 11.3816 10.7276 9.98119 10.0028Z" fill="black"/>
<path fill-rule="evenodd" clip-rule="evenodd" d="M31.0176 20.5277C30.8773 20.4265 30.697 20.3988 30.5328 20.453C28.7817 21.0321 26.9775 21.5114 25.1702 21.8775C24.8785 21.9367 24.6898 22.2213 24.749 22.5127C24.8082 22.8045 25.0925 22.9928 25.3843 22.9339C26.9907 22.6084 28.5947 22.1955 30.163 21.7041V25.096C27.6492 25.164 25.3978 25.7113 23.4639 26.7257C21.9293 27.5304 20.5947 28.6278 19.4899 29.9901C18.4235 29.3322 17.2053 28.9865 15.9363 28.9865C14.6968 28.9865 13.5018 29.3178 12.4506 29.9486C11.2283 28.4461 9.40334 26.8977 6.72663 25.9707C5.19316 25.4384 3.50788 25.1449 1.71031 25.0963V21.7044C3.0784 22.133 4.4758 22.5022 5.87403 22.8048C6.94234 23.036 8.0253 23.2318 9.09223 23.3861C11.348 23.7149 13.6509 23.8817 15.9363 23.8817C18.5469 23.8817 21.176 23.6643 23.751 23.2354C24.0444 23.1864 24.2429 22.9088 24.194 22.6153C24.145 22.3216 23.8671 22.1231 23.574 22.1723C21.0574 22.5913 18.4877 22.8037 15.9363 22.8037C13.7026 22.8037 11.4523 22.6408 9.24737 22.3194C8.20423 22.1684 7.14615 21.9773 6.1019 21.7511C4.49847 21.4046 2.8967 20.9679 1.34057 20.453C1.1763 20.3988 0.995986 20.4267 0.855499 20.528C0.715289 20.6292 0.632324 20.7918 0.632324 20.9646V25.6278C0.632324 25.9256 0.873475 26.1668 1.17132 26.1668C3.05102 26.1668 4.8013 26.4436 6.37347 26.989C9.14117 27.9478 11.2747 29.713 12.7156 32.2351C13.8005 34.1339 14.0643 35.7746 14.0668 35.7901C14.1069 36.0534 14.3331 36.2481 14.5997 36.2481H17.2742C17.5339 36.2481 17.7568 36.062 17.8041 35.8064C17.8088 35.7821 18.2753 33.3482 20.0986 30.958C21.1594 29.5675 22.4689 28.4602 23.9902 27.6671C25.8995 26.6718 28.1578 26.1668 30.702 26.1668C30.9996 26.1668 31.241 25.9256 31.241 25.6281V20.9649C31.241 20.7915 31.1578 20.6292 31.0176 20.5277V20.5277ZM16.8455 35.1701H15.0394C14.8843 34.5078 14.5037 33.2036 13.6741 31.7398C13.5073 31.4455 13.3165 31.1361 13.0997 30.8183C13.9606 30.3241 14.9307 30.0642 15.9365 30.0642C16.9711 30.0642 17.9647 30.338 18.8411 30.8582C17.598 32.6673 17.0494 34.385 16.8455 35.1701Z" fill="black"/>
</svg>
